<svg width="24" height="24" viewBox="0 0 24 24" fill="none" xmlns="http://www.w3.org/2000/svg">
<path d="M21 4H2V6H4.3L7.582 15.025C7.79362 15.6029 8.1773 16.1021 8.68134 16.4552C9.18539 16.8083 9.78556 16.9985 10.401 17H19V15H10.401C9.982 15 9.604 14.735 9.461 14.342L8.973 13H18.246C19.136 13 19.926 12.402 20.169 11.549L21.962 5.275C22.0039 5.12615 22.0109 4.96962 21.9823 4.81763C21.9537 4.66565 21.8904 4.52234 21.7973 4.39889C21.7041 4.27544 21.5837 4.1752 21.4454 4.106C21.3071 4.0368 21.1546 4.00053 21 4ZM18.246 11H8.246L6.428 6H19.675L18.246 11Z" fill="black"/>
<path d="M10.5 21C11.3284 21 12 20.3284 12 19.5C12 18.6716 11.3284 18 10.5 18C9.67157 18 9 18.6716 9 19.5C9 20.3284 9.67157 21 10.5 21Z" fill="black"/>
<path d="M16.5 21C17.3284 21 18 20.3284 18 19.5C18 18.6716 17.3284 18 16.5 18C15.6716 18 15 18.6716 15 19.5C15 20.3284 15.6716 21 16.5 21Z" fill="black"/>
</svg>
