<svg width="136" height="73" viewBox="0 0 136 73" fill="none" xmlns="http://www.w3.org/2000/svg">
<path d="M3.36 43C2.4 43 1.92 42.52 1.92 41.56C1.92 40.6 2.4 40.12 3.36 40.12C9.76 40.12 14.16 39.64 16.56 38.68C17.68 38.232 18.24 37.768 18.24 37.288C18.24 36.808 17.84 36.376 17.04 35.992C16.272 35.608 14.96 35.112 13.104 34.504C11.28 33.896 9.888 33.384 8.928 32.968C4.256 31.016 1.92 28.056 1.92 24.088C1.92 21.496 3.04 19.32 5.28 17.56C7.52 15.768 10.208 14.872 13.344 14.872C15.072 14.872 16.512 15.384 17.664 16.408C18.848 17.432 19.44 18.664 19.44 20.104C19.44 21.544 18.88 22.824 17.76 23.944C16.64 25.064 15.872 25.624 15.456 25.624C14.496 25.624 14.016 25.144 14.016 24.184C14.016 23.768 14.432 23.144 15.264 22.312C16.128 21.448 16.56 20.792 16.56 20.344C16.56 19.576 16.256 18.952 15.648 18.472C15.072 17.992 14.32 17.752 13.392 17.752C11.024 17.752 8.992 18.36 7.296 19.576C5.632 20.76 4.8 22.2 4.8 23.896C4.8 25.592 5.264 26.92 6.192 27.88C7.152 28.84 8.224 29.576 9.408 30.088C10.624 30.568 11.84 31.016 13.056 31.432C14.272 31.816 15.28 32.168 16.08 32.488C16.912 32.776 17.744 33.144 18.576 33.592C20.272 34.52 21.12 35.736 21.12 37.24C21.12 39.192 19.712 40.648 16.896 41.608C14.112 42.536 9.6 43 3.36 43ZM23.1105 24.472C23.0785 24.024 23.0625 23.32 23.0625 22.36C23.0625 18.904 23.3825 15.256 24.0225 11.416C24.1825 10.456 24.6625 9.976 25.4625 9.976C26.4225 9.976 26.9025 10.44 26.9025 11.368C26.9025 11.528 26.8705 11.8 26.8065 12.184C26.2305 15.64 25.9425 19.032 25.9425 22.36V23.944C30.1345 23.208 33.1745 22.84 35.0625 22.84C36.0225 22.84 36.5025 23.32 36.5025 24.28C36.5025 25.24 36.0225 25.72 35.0625 25.72C33.2065 25.72 30.2145 26.088 26.0865 26.824C26.7585 35.688 29.5905 40.12 34.5825 40.12C35.7025 40.12 37.0945 39.88 38.7585 39.4C40.4225 38.92 41.3025 38.68 41.3985 38.68C42.3585 38.68 42.8385 39.16 42.8385 40.12C42.8385 40.824 42.3585 41.336 41.3985 41.656C38.7105 42.552 36.4385 43 34.5825 43C31.6065 43 29.0945 41.784 27.0465 39.352C24.9985 36.92 23.7345 32.92 23.2545 27.352L22.1505 27.592C21.8625 27.624 21.6865 27.64 21.6225 27.64C20.6625 27.64 20.1825 27.16 20.1825 26.2C20.1825 25.432 20.6625 24.952 21.6225 24.76C22.2305 24.632 22.7265 24.536 23.1105 24.472ZM55.725 30.04C55.725 34.072 55.533 38.392 55.149 43C54.797 47.64 54.349 51.192 53.805 53.656C53.197 56.536 51.757 57.976 49.485 57.976C45.325 57.976 43.245 55.192 43.245 49.624C43.245 48.088 43.661 46.6 44.493 45.16C45.357 43.72 46.317 43 47.373 43C48.461 43 49.005 43.48 49.005 44.44C49.005 44.664 48.781 44.936 48.333 45.256C46.861 46.28 46.125 47.704 46.125 49.528C46.125 51.384 46.349 52.776 46.797 53.704C47.277 54.632 48.173 55.096 49.485 55.096C50.253 55.096 50.781 54.36 51.069 52.888C51.677 50.04 52.173 45.528 52.557 39.352C52.685 37.4 52.733 36.216 52.701 35.8C52.029 36.76 51.533 37.368 51.213 37.624C50.925 37.848 50.621 38.088 50.301 38.344C50.013 38.568 49.725 38.76 49.437 38.92C49.181 39.048 48.845 39.208 48.429 39.4C48.045 39.56 47.645 39.688 47.229 39.784C46.269 40.008 45.261 40.12 44.205 40.12C42.509 40.12 41.293 39.16 40.557 37.24C39.565 34.712 38.877 31.512 38.493 27.64C38.461 27.448 38.445 27.192 38.445 26.872C38.445 26.104 38.893 25.72 39.789 25.72C40.717 25.72 41.229 26.2 41.325 27.16C41.549 29.272 41.917 31.48 42.429 33.784C42.973 36.088 43.565 37.24 44.205 37.24C46.285 37.24 47.901 36.712 49.053 35.656C50.205 34.6 51.469 32.728 52.845 30.04C53.229 29.08 53.709 28.6 54.285 28.6C55.245 28.6 55.725 29.08 55.725 30.04ZM69.6656 43C66.5936 43 64.0176 40.696 61.9376 36.088C60.7856 37.016 59.3296 38.04 57.5696 39.16C55.8096 40.28 54.6576 40.968 54.1136 41.224C53.5696 41.448 53.1216 41.56 52.7696 41.56C51.8096 41.56 51.3296 41.08 51.3296 40.12C51.3296 39.512 51.8096 39.016 52.7696 38.632C53.3136 38.408 54.4496 37.736 56.1776 36.616C57.9376 35.464 59.4256 34.392 60.6416 33.4C59.9376 31.096 59.5856 28.536 59.5856 25.72C59.5856 21.464 60.3696 17.784 61.9376 14.68C63.5376 11.544 65.3136 9.976 67.2656 9.976C68.0976 9.976 68.8176 10.232 69.4256 10.744C70.0336 11.256 70.4816 11.896 70.7696 12.664C71.3136 14.136 71.5856 15.736 71.5856 17.464C71.5856 19.192 71.3936 20.952 71.0096 22.744C70.6256 24.504 70.1616 25.992 69.6176 27.208C69.1056 28.424 68.4816 29.56 67.7456 30.616C66.6576 32.184 65.5216 33.448 64.3376 34.408C66.0656 38.216 67.8416 40.12 69.6656 40.12C70.9136 40.12 72.2576 39.88 73.6976 39.4C75.1376 38.92 75.9056 38.68 76.0016 38.68C76.9616 38.68 77.4416 39.16 77.4416 40.12C77.4416 40.824 76.9616 41.336 76.0016 41.656C73.3136 42.552 71.2016 43 69.6656 43ZM67.2656 12.856C66.7216 12.856 66.0176 13.528 65.1536 14.872C63.3616 17.688 62.4656 21.304 62.4656 25.72C62.4656 27.96 62.7056 29.928 63.1856 31.624C64.2416 30.632 65.2176 29.352 66.1136 27.784C67.8416 24.776 68.7056 21.208 68.7056 17.08C68.7056 16.152 68.5776 15.224 68.3216 14.296C68.0656 13.336 67.7136 12.856 67.2656 12.856ZM82.2161 19.192C82.7281 19.192 83.2561 19.432 83.8001 19.912C84.3441 20.36 84.6161 20.84 84.6161 21.352C84.6161 21.832 84.3921 22.2 83.9441 22.456C83.5281 22.712 83.0641 22.84 82.5521 22.84C82.0401 22.84 81.6081 22.616 81.2561 22.168C80.9361 21.688 80.7761 21.176 80.7761 20.632C80.7761 19.672 81.2561 19.192 82.2161 19.192ZM77.8961 37.048C76.1041 38.968 74.2801 40.344 72.4241 41.176C71.8481 41.432 71.3841 41.56 71.0321 41.56C70.0721 41.56 69.5921 41.08 69.5921 40.12C69.5921 39.512 70.0721 39.016 71.0321 38.632C71.5441 38.44 72.2161 38.056 73.0481 37.48C73.9121 36.904 74.4881 36.472 74.7761 36.184C75.0641 35.896 75.5601 35.368 76.2641 34.6C77.0001 33.832 77.5761 33.256 77.9921 32.872C78.4081 32.456 78.9681 32.04 79.6721 31.624C80.4081 31.208 81.0801 31 81.6881 31C82.9361 31 83.8961 31.448 84.5681 32.344C85.2401 33.24 85.6401 34.232 85.7681 35.32C86.1201 38.2 86.6801 39.64 87.4481 39.64C88.0561 39.64 88.8401 39.48 89.8001 39.16C90.7601 38.84 91.2881 38.68 91.3841 38.68C92.3441 38.68 92.8241 39.16 92.8241 40.12C92.8241 40.824 92.3441 41.336 91.3841 41.656C89.6561 42.232 88.2481 42.52 87.1601 42.52C86.1041 42.52 85.2401 42.072 84.5681 41.176C83.8961 40.28 83.4961 39.288 83.3681 38.2C83.0161 35.32 82.4561 33.88 81.6881 33.88C81.2721 33.88 80.7921 34.152 80.2481 34.696C79.7361 35.208 79.3201 35.624 79.0001 35.944C78.6801 36.232 78.3121 36.6 77.8961 37.048ZM86.3884 38.632C88.1164 37.928 89.4764 37.192 90.4684 36.424C91.4604 35.624 92.6764 34.472 94.1164 32.968C95.5564 31.464 96.5004 30.52 96.9484 30.136C98.4844 28.792 100.116 28.12 101.844 28.12C102.9 28.12 104.052 28.376 105.3 28.888C106.58 29.4 107.764 30.312 108.852 31.624C109.94 32.936 110.484 34.504 110.484 36.328C110.484 38.12 109.428 39.688 107.316 41.032C105.204 42.344 102.42 43 98.9644 43C98.0044 43 97.5244 42.52 97.5244 41.56C97.5244 40.6 98.0044 40.12 98.9644 40.12C101.588 40.12 103.684 39.704 105.252 38.872C106.82 38.008 107.604 37.144 107.604 36.28C107.604 35.096 107.22 34.072 106.452 33.208C105.108 31.736 103.572 31 101.844 31C100.852 31 99.8764 31.416 98.9164 32.248C98.6284 32.504 97.7004 33.432 96.1324 35.032C94.5964 36.632 93.3164 37.832 92.2924 38.632C91.3004 39.432 90.1484 40.12 88.8364 40.696C87.5564 41.272 86.7404 41.56 86.3884 41.56C85.4284 41.56 84.9484 41.08 84.9484 40.12C84.9484 39.512 85.4284 39.016 86.3884 38.632ZM135.062 40.12C135.062 41.4 133.59 42.04 130.646 42.04C129.27 42.04 128.198 41.736 127.43 41.128C126.694 40.52 126.326 39.464 126.326 37.96C126.326 36.456 126.198 35.16 125.942 34.072C125.686 32.984 125.334 32.44 124.886 32.44C123.542 32.44 122.262 33.688 121.046 36.184C120.534 37.208 119.99 38.248 119.414 39.304C118.838 40.328 118.07 41.208 117.11 41.944C116.182 42.648 115.094 43 113.846 43C110.966 43 109.526 40.216 109.526 34.648C109.526 30.648 109.958 26.76 110.822 22.984C111.718 19.208 112.95 16.104 114.518 13.672C116.118 11.208 117.798 9.976 119.558 9.976C121.318 9.976 122.646 10.616 123.542 11.896C124.438 13.176 124.886 14.84 124.886 16.888C124.886 18.904 124.31 20.904 123.158 22.888C122.038 24.84 120.662 26.424 119.03 27.64C118.23 28.28 117.622 28.6 117.206 28.6C116.246 28.6 115.766 28.12 115.766 27.16C115.766 26.776 116.31 26.168 117.398 25.336C118.486 24.504 119.526 23.32 120.518 21.784C121.51 20.216 122.006 18.392 122.006 16.312C122.006 15.448 121.814 14.664 121.43 13.96C121.046 13.224 120.438 12.856 119.606 12.856C118.646 12.856 117.606 13.864 116.486 15.88C115.398 17.864 114.438 20.584 113.606 24.04C112.806 27.496 112.406 31.048 112.406 34.696C112.406 38.312 112.886 40.12 113.846 40.12C115.19 40.12 116.47 38.872 117.686 36.376C118.198 35.352 118.742 34.328 119.318 33.304C119.894 32.248 120.646 31.368 121.574 30.664C122.534 29.928 123.638 29.56 124.886 29.56C127.766 29.56 129.206 32.28 129.206 37.72C129.206 38.68 129.67 39.16 130.598 39.16C131.558 39.16 132.278 39.08 132.758 38.92C133.238 38.76 133.526 38.68 133.622 38.68C134.582 38.68 135.062 39.16 135.062 40.12Z" fill="#141414"/>
<path d="M6.216 69.192C5.58667 69.192 5.00533 69.064 4.472 68.808C3.93867 68.5413 3.48 68.168 3.096 67.688C2.712 67.208 2.41333 66.632 2.2 65.96C1.98667 65.2773 1.88 64.52 1.88 63.688C1.88 62.856 1.98667 62.1093 2.2 61.448C2.41333 60.776 2.712 60.2053 3.096 59.736C3.48 59.256 3.93867 58.8933 4.472 58.648C5.00533 58.392 5.58667 58.264 6.216 58.264C6.856 58.264 7.44267 58.392 7.976 58.648C8.50933 58.8933 8.968 59.256 9.352 59.736C9.736 60.2053 10.0347 60.776 10.248 61.448C10.4613 62.1093 10.568 62.856 10.568 63.688C10.568 64.52 10.4613 65.2773 10.248 65.96C10.0347 66.632 9.736 67.208 9.352 67.688C8.968 68.168 8.50933 68.5413 7.976 68.808C7.44267 69.064 6.856 69.192 6.216 69.192ZM6.216 68.52C6.74933 68.52 7.23467 68.408 7.672 68.184C8.10933 67.9493 8.48267 67.624 8.792 67.208C9.112 66.7813 9.35733 66.2747 9.528 65.688C9.69867 65.0907 9.784 64.424 9.784 63.688C9.784 62.9627 9.69867 62.3067 9.528 61.72C9.35733 61.1333 9.112 60.6373 8.792 60.232C8.48267 59.816 8.10933 59.496 7.672 59.272C7.23467 59.048 6.74933 58.936 6.216 58.936C5.68267 58.936 5.192 59.048 4.744 59.272C4.30667 59.496 3.93333 59.816 3.624 60.232C3.31467 60.6373 3.07467 61.1333 2.904 61.72C2.73333 62.3067 2.648 62.9627 2.648 63.688C2.648 64.424 2.73333 65.0907 2.904 65.688C3.07467 66.2747 3.31467 66.7813 3.624 67.208C3.93333 67.624 4.30667 67.9493 4.744 68.184C5.192 68.408 5.68267 68.52 6.216 68.52ZM17.7095 69V61.32H18.3175L18.3815 62.504H18.4295C18.8242 62.1093 19.2295 61.784 19.6455 61.528C20.0615 61.2613 20.5362 61.128 21.0695 61.128C21.8695 61.128 22.4562 61.368 22.8295 61.848C23.2028 62.328 23.3895 63.0693 23.3895 64.072V69H22.6855V64.168C22.6855 63.3467 22.5468 62.744 22.2695 62.36C22.0028 61.9653 21.5548 61.768 20.9255 61.768C20.4668 61.768 20.0508 61.8907 19.6775 62.136C19.3042 62.3707 18.8828 62.728 18.4135 63.208V69H17.7095ZM31.9691 69.192C31.3398 69.192 31.0251 68.7867 31.0251 67.976V57.496H31.7291V68.072C31.7291 68.2427 31.7611 68.3707 31.8251 68.456C31.8891 68.5307 31.9691 68.568 32.0651 68.568C32.0971 68.568 32.1291 68.568 32.1611 68.568C32.2038 68.568 32.2678 68.5573 32.3531 68.536L32.4811 69.112C32.4065 69.1333 32.3318 69.1493 32.2571 69.16C32.1825 69.1813 32.0865 69.192 31.9691 69.192ZM39.622 69V61.32H40.326V69H39.622ZM39.99 59.464C39.8087 59.464 39.654 59.4053 39.526 59.288C39.4087 59.1707 39.35 59.0213 39.35 58.84C39.35 58.6373 39.4087 58.4827 39.526 58.376C39.654 58.2587 39.8087 58.2 39.99 58.2C40.1713 58.2 40.3207 58.2587 40.438 58.376C40.566 58.4827 40.63 58.6373 40.63 58.84C40.63 59.0213 40.566 59.1707 40.438 59.288C40.3207 59.4053 40.1713 59.464 39.99 59.464ZM48.0783 69V61.32H48.6863L48.7503 62.504H48.7983C49.1929 62.1093 49.5983 61.784 50.0143 61.528C50.4303 61.2613 50.9049 61.128 51.4383 61.128C52.2383 61.128 52.8249 61.368 53.1983 61.848C53.5716 62.328 53.7583 63.0693 53.7583 64.072V69H53.0543V64.168C53.0543 63.3467 52.9156 62.744 52.6383 62.36C52.3716 61.9653 51.9236 61.768 51.2943 61.768C50.8356 61.768 50.4196 61.8907 50.0463 62.136C49.6729 62.3707 49.2516 62.728 48.7823 63.208V69H48.0783ZM64.3059 69.192C63.8152 69.192 63.3512 69.1013 62.9139 68.92C62.4872 68.7387 62.1139 68.4773 61.7939 68.136C61.4739 67.784 61.2179 67.3627 61.0259 66.872C60.8445 66.3707 60.7539 65.8053 60.7539 65.176C60.7539 64.5467 60.8445 63.9813 61.0259 63.48C61.2179 62.9787 61.4685 62.5573 61.7779 62.216C62.0979 61.864 62.4552 61.5973 62.8499 61.416C63.2552 61.224 63.6712 61.128 64.0979 61.128C65.0152 61.128 65.7352 61.4373 66.2579 62.056C66.7805 62.6747 67.0419 63.5493 67.0419 64.68C67.0419 64.776 67.0419 64.872 67.0419 64.968C67.0419 65.064 67.0312 65.16 67.0099 65.256H61.4739C61.4845 65.736 61.5592 66.184 61.6979 66.6C61.8365 67.0053 62.0285 67.3573 62.2739 67.656C62.5299 67.944 62.8339 68.1733 63.1859 68.344C63.5379 68.504 63.9325 68.584 64.3699 68.584C64.7859 68.584 65.1592 68.5253 65.4899 68.408C65.8312 68.28 66.1459 68.1093 66.4339 67.896L66.7219 68.44C66.4125 68.6213 66.0712 68.792 65.6979 68.952C65.3352 69.112 64.8712 69.192 64.3059 69.192ZM61.4739 64.68H66.3699C66.3699 63.688 66.1672 62.952 65.7619 62.472C65.3565 61.9813 64.8072 61.736 64.1139 61.736C63.7832 61.736 63.4685 61.8053 63.1699 61.944C62.8712 62.072 62.5992 62.264 62.3539 62.52C62.1192 62.776 61.9219 63.0853 61.7619 63.448C61.6125 63.8107 61.5165 64.2213 61.4739 64.68ZM84.7634 69.192C83.9954 69.192 83.3127 69.048 82.7154 68.76C82.118 68.4613 81.6114 68.0773 81.1954 67.608L81.6754 67.096C82.0594 67.5333 82.518 67.88 83.0514 68.136C83.5847 68.392 84.1554 68.52 84.7634 68.52C85.574 68.52 86.214 68.328 86.6834 67.944C87.1527 67.5493 87.3874 67.0373 87.3874 66.408C87.3874 66.0773 87.334 65.8 87.2274 65.576C87.1314 65.3413 86.998 65.144 86.8274 64.984C86.6567 64.8133 86.454 64.6693 86.2194 64.552C85.9954 64.4347 85.7554 64.3173 85.4994 64.2L83.8994 63.48C83.6754 63.384 83.4354 63.2667 83.1794 63.128C82.9234 62.9893 82.6887 62.8187 82.4754 62.616C82.2727 62.4027 82.102 62.1573 81.9634 61.88C81.8247 61.592 81.7554 61.2507 81.7554 60.856C81.7554 60.472 81.83 60.1253 81.9794 59.816C82.1394 59.496 82.3527 59.224 82.6194 59C82.8967 58.7653 83.222 58.584 83.5954 58.456C83.9794 58.328 84.39 58.264 84.8274 58.264C85.4674 58.264 86.0327 58.392 86.5234 58.648C87.0247 58.8933 87.4354 59.1867 87.7554 59.528L87.3394 60.008C87.03 59.688 86.6674 59.432 86.2514 59.24C85.8354 59.0373 85.3607 58.936 84.8274 58.936C84.1234 58.936 83.558 59.1067 83.1314 59.448C82.7047 59.7893 82.4914 60.248 82.4914 60.824C82.4914 61.1333 82.55 61.3947 82.6674 61.608C82.7847 61.8213 82.934 62.008 83.1154 62.168C83.2967 62.3173 83.494 62.4507 83.7074 62.568C83.9207 62.6747 84.1234 62.7707 84.3154 62.856L85.9154 63.56C86.214 63.688 86.4967 63.832 86.7634 63.992C87.03 64.152 87.2647 64.3387 87.4674 64.552C87.67 64.7653 87.83 65.0213 87.9474 65.32C88.0754 65.608 88.1394 65.9547 88.1394 66.36C88.1394 66.7653 88.0594 67.144 87.8994 67.496C87.7394 67.8373 87.51 68.136 87.2114 68.392C86.9234 68.6373 86.5714 68.8347 86.1554 68.984C85.7394 69.1227 85.2754 69.192 84.7634 69.192ZM96.8274 69.192C96.454 69.192 96.1447 69.1333 95.8994 69.016C95.654 68.9093 95.4567 68.7547 95.3074 68.552C95.158 68.3493 95.0514 68.104 94.9874 67.816C94.934 67.528 94.9074 67.2133 94.9074 66.872V61.928H93.7074V61.384L94.9234 61.32L95.0194 59.096H95.6274V61.32H97.8514V61.928H95.6274V66.936C95.6274 67.1813 95.6434 67.4053 95.6754 67.608C95.718 67.8 95.7874 67.9707 95.8834 68.12C95.9794 68.2587 96.1074 68.3707 96.2674 68.456C96.438 68.5307 96.6567 68.568 96.9234 68.568C97.0727 68.568 97.2327 68.5467 97.4034 68.504C97.5847 68.4507 97.7447 68.392 97.8834 68.328L98.0754 68.904C97.8514 68.9893 97.6274 69.0587 97.4034 69.112C97.1794 69.1653 96.9874 69.192 96.8274 69.192ZM107.144 69.192C106.685 69.192 106.248 69.1013 105.832 68.92C105.416 68.7387 105.048 68.4773 104.728 68.136C104.419 67.7947 104.168 67.3787 103.976 66.888C103.795 66.3867 103.704 65.816 103.704 65.176C103.704 64.536 103.795 63.9653 103.976 63.464C104.168 62.952 104.419 62.5253 104.728 62.184C105.048 61.8427 105.416 61.5813 105.832 61.4C106.248 61.2187 106.685 61.128 107.144 61.128C107.603 61.128 108.04 61.2187 108.456 61.4C108.883 61.5813 109.251 61.8427 109.56 62.184C109.88 62.5253 110.131 62.952 110.312 63.464C110.504 63.9653 110.6 64.536 110.6 65.176C110.6 65.816 110.504 66.3867 110.312 66.888C110.131 67.3787 109.88 67.7947 109.56 68.136C109.251 68.4773 108.883 68.7387 108.456 68.92C108.04 69.1013 107.603 69.192 107.144 69.192ZM107.144 68.568C107.528 68.568 107.885 68.488 108.216 68.328C108.557 68.1573 108.845 67.9227 109.08 67.624C109.325 67.3253 109.517 66.968 109.656 66.552C109.795 66.136 109.864 65.6773 109.864 65.176C109.864 64.664 109.795 64.2 109.656 63.784C109.517 63.368 109.325 63.0107 109.08 62.712C108.845 62.4027 108.557 62.168 108.216 62.008C107.885 61.8373 107.528 61.752 107.144 61.752C106.76 61.752 106.403 61.8373 106.072 62.008C105.741 62.168 105.453 62.4027 105.208 62.712C104.973 63.0107 104.787 63.368 104.648 63.784C104.509 64.2 104.44 64.664 104.44 65.176C104.44 65.6773 104.509 66.136 104.648 66.552C104.787 66.968 104.973 67.3253 105.208 67.624C105.453 67.9227 105.741 68.1573 106.072 68.328C106.403 68.488 106.76 68.568 107.144 68.568ZM117.706 69V61.32H118.314L118.378 62.744H118.426C118.682 62.264 118.992 61.8747 119.354 61.576C119.728 61.2773 120.144 61.128 120.602 61.128C120.752 61.128 120.885 61.1387 121.002 61.16C121.12 61.1813 121.242 61.224 121.37 61.288L121.21 61.928C121.082 61.8747 120.97 61.8427 120.874 61.832C120.778 61.8107 120.656 61.8 120.506 61.8C120.165 61.8 119.802 61.9493 119.418 62.248C119.045 62.536 118.709 63.0427 118.41 63.768V69H117.706ZM130.34 69.192C129.85 69.192 129.386 69.1013 128.948 68.92C128.522 68.7387 128.148 68.4773 127.828 68.136C127.508 67.784 127.252 67.3627 127.06 66.872C126.879 66.3707 126.788 65.8053 126.788 65.176C126.788 64.5467 126.879 63.9813 127.06 63.48C127.252 62.9787 127.503 62.5573 127.812 62.216C128.132 61.864 128.49 61.5973 128.884 61.416C129.29 61.224 129.706 61.128 130.132 61.128C131.05 61.128 131.77 61.4373 132.292 62.056C132.815 62.6747 133.076 63.5493 133.076 64.68C133.076 64.776 133.076 64.872 133.076 64.968C133.076 65.064 133.066 65.16 133.044 65.256H127.508C127.519 65.736 127.594 66.184 127.732 66.6C127.871 67.0053 128.063 67.3573 128.308 67.656C128.564 67.944 128.868 68.1733 129.22 68.344C129.572 68.504 129.967 68.584 130.404 68.584C130.82 68.584 131.194 68.5253 131.524 68.408C131.866 68.28 132.18 68.1093 132.468 67.896L132.756 68.44C132.447 68.6213 132.106 68.792 131.732 68.952C131.37 69.112 130.906 69.192 130.34 69.192ZM127.508 64.68H132.404C132.404 63.688 132.202 62.952 131.796 62.472C131.391 61.9813 130.842 61.736 130.148 61.736C129.818 61.736 129.503 61.8053 129.204 61.944C128.906 62.072 128.634 62.264 128.388 62.52C128.154 62.776 127.956 63.0853 127.796 63.448C127.647 63.8107 127.551 64.2213 127.508 64.68Z" fill="#777777"/>
</svg>
